<svg width="308" height="258" viewBox="0 0 308 258" fill="none" xmlns="http://www.w3.org/2000/svg">

  <g id="logo-internal-triangle" class="logo-ring">
    <path d="M148.872 91.8384C151.208 87.9913 156.792 87.9913 159.128 91.8385L234.201 215.447C236.629 219.445 233.751 224.561 229.073 224.561H78.9275C74.2493 224.561 71.3707 219.445 73.7992 215.447L148.872 91.8384Z" stroke="var(--color-primary)" stroke-width="9"/>

    <path d="M154 83.3947L239.737 224.561H68.2635L154 83.3947Z" stroke="var(--color-primary)" stroke-width="9" stroke-linejoin="round"/>
  </g>

  <g id="logo-external-triangle" class="logo-ring">
    <path d="M148.872 21.3696C151.208 17.5224 156.792 17.5224 159.128 21.3696L288.76 234.811C291.189 238.81 288.31 243.926 283.632 243.926H24.3679C19.6897 243.926 16.8111 238.81 19.2396 234.811L148.872 21.3696Z" stroke="var(--color-primary)" stroke-width="9"/>

    <path d="M154 12.9258L294.296 243.926H13.7039L154 12.9258Z" stroke="var(--color-primary)" stroke-width="9" stroke-linejoin="round"/>
  </g>

  <g id="logo-internal-drop" class="logo-ring">
    <path d="M178.514 159.411L174.656 161.728C174.692 161.788 174.729 161.847 174.768 161.905L178.514 159.411ZM183.34 175.371H187.84V175.371L183.34 175.371ZM154.001 204.414V208.914H154.001L154.001 204.414ZM124.661 175.371L120.161 175.371V175.371H124.661ZM128.166 161.595L132.117 163.749C132.877 162.355 132.846 160.663 132.035 159.297C131.225 157.932 129.754 157.095 128.166 157.095V161.595ZM128.145 161.595L124.283 159.286C123.452 160.676 123.432 162.406 124.231 163.815C125.031 165.224 126.526 166.095 128.145 166.095V161.595ZM128.456 161.075L132.319 163.384C132.333 163.36 132.347 163.335 132.361 163.31L128.456 161.075ZM129.055 160.079L132.867 162.469C132.883 162.445 132.898 162.42 132.913 162.396L129.055 160.079ZM153.985 118.56L157.843 116.244C157.03 114.889 155.565 114.06 153.985 114.06C152.405 114.06 150.941 114.889 150.127 116.244L153.985 118.56ZM178.514 159.411L174.768 161.905C177.343 165.773 178.84 170.394 178.84 175.371L183.34 175.371L187.84 175.371C187.84 168.557 185.783 162.21 182.259 156.917L178.514 159.411ZM183.34 175.371H178.84C178.84 188.883 167.762 199.914 154.001 199.914L154.001 204.414L154.001 208.914C172.647 208.914 187.84 193.939 187.84 175.371H183.34ZM154.001 204.414V199.914C140.239 199.914 129.161 188.883 129.161 175.371H124.661H120.161C120.161 193.939 135.355 208.914 154.001 208.914V204.414ZM124.661 175.371L129.161 175.371C129.161 171.159 130.232 167.206 132.117 163.749L128.166 161.595L124.215 159.44C121.629 164.182 120.161 169.612 120.161 175.371L124.661 175.371ZM128.166 161.595V157.095H128.145V161.595V166.095H128.166V161.595ZM128.145 161.595L132.008 163.903L132.319 163.384L128.456 161.075L124.593 158.766L124.283 159.286L128.145 161.595ZM128.456 161.075L132.361 163.31C132.519 163.035 132.687 162.756 132.867 162.469L129.055 160.079L125.242 157.689C125.01 158.058 124.778 158.442 124.55 158.84L128.456 161.075ZM129.055 160.079L132.913 162.396L157.843 120.877L153.985 118.56L150.127 116.244L125.197 157.762L129.055 160.079ZM153.985 118.56L150.127 120.877L174.656 161.728L178.514 159.411L182.372 157.095L157.843 116.244L153.985 118.56Z" fill="var(--color-primary)"/>

    <path d="M178.514 159.411L174.656 161.728C174.692 161.788 174.729 161.847 174.768 161.905L178.514 159.411ZM183.34 175.371H187.84V175.371L183.34 175.371ZM154.001 204.414V208.914H154.001L154.001 204.414ZM124.661 175.371L120.161 175.371V175.371H124.661ZM128.456 161.075L132.319 163.384C132.333 163.36 132.347 163.335 132.361 163.31L128.456 161.075ZM129.055 160.079L132.867 162.469C132.883 162.445 132.898 162.42 132.913 162.396L129.055 160.079ZM159.129 127.127L155.271 129.444L159.129 127.127ZM128.151 161.586L124.288 159.277L128.151 161.586ZM128.161 161.603L124.21 159.45L128.161 161.603ZM178.514 159.411L174.768 161.905C177.343 165.773 178.84 170.394 178.84 175.371L183.34 175.371L187.84 175.371C187.84 168.557 185.783 162.21 182.259 156.917L178.514 159.411ZM183.34 175.371H178.84C178.84 188.883 167.762 199.914 154.001 199.914L154.001 204.414L154.001 208.914C172.647 208.914 187.84 193.939 187.84 175.371H183.34ZM154.001 204.414V199.914C140.239 199.914 129.161 188.883 129.161 175.371H124.661H120.161C120.161 193.939 135.355 208.914 154.001 208.914V204.414ZM124.661 175.371L129.161 175.371C129.161 171.162 130.23 167.211 132.113 163.757L128.161 161.603L124.21 159.45C121.627 164.19 120.161 169.616 120.161 175.371L124.661 175.371ZM128.151 161.586L132.013 163.894L132.319 163.384L128.456 161.075L124.593 158.766L124.288 159.277L128.151 161.586ZM128.456 161.075L132.361 163.31C132.519 163.035 132.687 162.756 132.867 162.469L129.055 160.079L125.242 157.689C125.01 158.058 124.778 158.442 124.55 158.84L128.456 161.075ZM129.055 160.079L132.913 162.396L152.699 129.444L148.841 127.127L144.983 124.811L125.197 157.762L129.055 160.079ZM159.129 127.127L155.271 129.444L174.656 161.728L178.514 159.411L182.372 157.095L162.987 124.811L159.129 127.127ZM148.841 127.127L152.699 129.444C153.282 128.473 154.688 128.473 155.271 129.444L159.129 127.127L162.987 124.811C158.908 118.018 149.062 118.018 144.983 124.811L148.841 127.127ZM128.156 161.595V157.095C131.646 157.095 133.804 160.899 132.013 163.894L128.151 161.586L124.288 159.277C122.493 162.28 124.657 166.095 128.156 166.095V161.595ZM128.161 161.603L132.113 163.757C133.75 160.751 131.572 157.095 128.156 157.095V161.595V166.095C124.749 166.095 122.576 162.448 124.21 159.45L128.161 161.603Z" fill="var(--color-primary)"/>
  </g>

  <g id="logo-external-drop" class="logo-ring">
    <path d="M204.082 131.445L200.214 133.744C200.251 133.806 200.289 133.867 200.329 133.927L204.082 131.445ZM214 164.497L218.5 164.497V164.497H214ZM154 224.496L154 228.996L154 228.996L154 224.496ZM94.0004 164.497L89.5004 164.497L89.5004 164.497L94.0004 164.497ZM101.168 136.035L105.128 138.173C105.881 136.779 105.845 135.091 105.033 133.73C104.221 132.369 102.753 131.535 101.168 131.535V136.035ZM101.126 136.035L97.257 133.738C96.4312 135.129 96.4154 136.856 97.2156 138.262C98.0158 139.667 99.5089 140.535 101.126 140.535V136.035ZM101.72 135.035L105.589 137.333C105.606 137.305 105.622 137.277 105.638 137.248L101.72 135.035ZM103.101 132.711L106.916 135.098C106.934 135.069 106.952 135.04 106.969 135.011L103.101 132.711ZM153.969 47.1321L157.837 44.8329C157.026 43.4684 155.557 42.6322 153.969 42.6321C152.382 42.6321 150.912 43.4684 150.101 44.8329L153.969 47.1321ZM204.082 131.445L200.329 133.927C206.125 142.691 209.5 153.194 209.5 164.497H214H218.5C218.5 151.374 214.575 139.154 207.836 128.962L204.082 131.445ZM214 164.497L209.5 164.497C209.5 195.149 184.652 219.996 154 219.996L154 224.496L154 228.996C189.622 228.996 218.5 200.119 218.5 164.497L214 164.497ZM154 224.496V219.996C123.349 219.996 98.5006 195.149 98.5004 164.497L94.0004 164.497L89.5004 164.497C89.5006 200.12 118.378 228.996 154 228.996V224.496ZM94.0004 164.497H98.5004C98.5004 154.963 100.902 146.002 105.128 138.173L101.168 136.035L97.2085 133.898C92.2909 143.007 89.5004 153.433 89.5004 164.497H94.0004ZM101.168 136.035V131.535H101.126V136.035V140.535H101.168V136.035ZM101.126 136.035L104.996 138.333L105.589 137.333L101.72 135.035L97.8508 132.738L97.257 133.738L101.126 136.035ZM101.72 135.035L105.638 137.248C106.051 136.517 106.476 135.8 106.916 135.098L103.101 132.711L99.2864 130.324C98.7704 131.149 98.2763 131.982 97.8018 132.823L101.72 135.035ZM103.101 132.711L106.969 135.011L157.837 49.4314L153.969 47.1321L150.101 44.8329L99.2327 130.412L103.101 132.711ZM153.969 47.1321L150.101 49.4314L200.214 133.744L204.082 131.445L207.951 129.145L157.837 44.8329L153.969 47.1321Z" fill="var(--color-primary)"/>

    <path d="M204.082 131.445L200.214 133.744C200.251 133.806 200.289 133.867 200.329 133.927L204.082 131.445ZM214 164.497L218.5 164.497V164.497H214ZM154 224.496L154 228.996L154 228.996L154 224.496ZM94.0004 164.497L89.5004 164.497L89.5004 164.497L94.0004 164.497ZM101.72 135.035L105.589 137.333C105.606 137.305 105.622 137.277 105.638 137.248L101.72 135.035ZM103.101 132.711L106.916 135.098C106.934 135.069 106.952 135.04 106.969 135.01L103.101 132.711ZM159.127 55.8095L155.258 58.1087L159.127 55.8095ZM101.137 136.017L105.007 138.314L101.137 136.017ZM101.159 136.053L97.1981 133.917L101.159 136.053ZM204.082 131.445L200.329 133.927C206.125 142.691 209.5 153.194 209.5 164.497H214H218.5C218.5 151.374 214.575 139.154 207.836 128.962L204.082 131.445ZM214 164.497L209.5 164.497C209.5 195.149 184.652 219.996 154 219.996L154 224.496L154 228.996C189.622 228.996 218.5 200.119 218.5 164.497L214 164.497ZM154 224.496V219.996C123.349 219.996 98.5006 195.149 98.5004 164.497L94.0004 164.497L89.5004 164.497C89.5006 200.119 118.378 228.996 154 228.996V224.496ZM94.0004 164.497H98.5004C98.5004 154.969 100.898 146.015 105.119 138.19L101.159 136.053L97.1981 133.917C92.2869 143.022 89.5004 153.441 89.5004 164.497H94.0004ZM101.137 136.017L105.007 138.314L105.589 137.333L101.72 135.035L97.8508 132.738L97.268 133.72L101.137 136.017ZM101.72 135.035L105.638 137.248C106.051 136.517 106.476 135.8 106.916 135.098L103.101 132.711L99.2864 130.324C98.7704 131.149 98.2763 131.982 97.8018 132.823L101.72 135.035ZM103.101 132.711L106.969 135.01L152.68 58.1087L148.811 55.8094L144.943 53.5101L99.2327 130.412L103.101 132.711ZM159.127 55.8095L155.258 58.1087L200.214 133.744L204.082 131.445L207.951 129.145L162.995 53.5103L159.127 55.8095ZM148.811 55.8094L152.68 58.1087C153.261 57.1306 154.677 57.1306 155.258 58.1087L159.127 55.8095L162.995 53.5103C158.925 46.6634 149.013 46.6634 144.943 53.5101L148.811 55.8094ZM101.148 136.035V131.535C104.627 131.535 106.783 135.323 105.007 138.314L101.137 136.017L97.268 133.72C95.4821 136.727 97.6498 140.535 101.148 140.535V136.035ZM101.159 136.053L105.119 138.19C106.743 135.18 104.56 131.535 101.148 131.535V136.035V140.535C97.7547 140.535 95.5833 136.911 97.1981 133.917L101.159 136.053Z" fill="var(--color-primary)"/>
  </g>
</svg>
